<?xml version="1.0" standalone="no"?>
<!DOCTYPE svg PUBLIC "-//W3C//DTD SVG 1.1//EN" "http://www.w3.org/Graphics/SVG/1.1/DTD/svg11.dtd">
<svg xmlns="http://www.w3.org/2000/svg" xmlns:xlink="http://www.w3.org/1999/xlink" version="1.1" x="0px" y="0px" viewBox="0 0 500 500" style="enable-background:new 0 0 500 500;" xml:space="preserve" width="500" height="500">
<style type="text/css">
	.st0{fill:none;}
	.st1{fill:#65FE08;stroke:#4C9A2A;stroke-width:4;stroke-miterlimit:10;}
	.st2{fill:#4C9A2A;}
	.st3{fill:#65FE08;}
	.st4{fill:none;stroke:#4C9A2A;stroke-width:4;stroke-miterlimit:10;}
	.st5{fill:#FFBF00;}
	.st6{fill:none;stroke:#FD6A02;stroke-width:4;stroke-miterlimit:10;}
	.st7{fill:#FFBF00;stroke:#FD6A02;stroke-width:4;stroke-miterlimit:10;}
	.st8{fill:#29C5F6;}
	.st9{fill:none;stroke:#1260CC;stroke-width:4;stroke-miterlimit:10;}
	.st10{fill:#29C5F6;stroke:#1260CC;stroke-width:4;stroke-miterlimit:10;}
	.st11{stroke:#000000;stroke-width:7;stroke-miterlimit:10;}
	.st12{fill:#5ECE15;stroke:#2F591C;stroke-width:3;stroke-miterlimit:10;}
	.st13{fill:#EA4798;}
	.st14{fill:none;stroke:#000000;stroke-width:2;stroke-miterlimit:10;}
	.st15{fill:#FFFFFF;}
	.st16{fill:#F9A846;stroke:#CE6F11;stroke-width:3;stroke-miterlimit:10;}
	.st17{fill:#1793FF;stroke:#0011D0;stroke-width:3;stroke-miterlimit:10;}
</style>
<g id="Agar_1">
</g>
<g id="Agar_2">
</g>
<g id="Agar_3">
	<rect x="472.54" y="458.54" class="st0" width="1.67" height="3.47"/>
</g>
<g id="Faces_1">
</g>
<g id="Faces_2">
</g>
<g id="Faces_3">
	<path class="st1" d="M59.88,356.83"/>
	<g>
		<path class="st1" d="M126.57,311.61"/>
		<g>
			<g>
				<path class="st2" d="M215.71,230.56c-0.4,0.44-0.84,0.84-1.31,1.21c0.1-0.08,0.2-0.16,0.3-0.23c-0.42,0.32-0.86,0.61-1.32,0.87      c-0.33,0.18-0.59,0.54-0.69,0.9c-0.1,0.36-0.05,0.84,0.15,1.16c0.21,0.32,0.51,0.6,0.9,0.69c0.4,0.09,0.79,0.05,1.16-0.15      c1.09-0.6,2.09-1.4,2.93-2.31c0.27-0.29,0.44-0.66,0.44-1.06c0-0.37-0.16-0.81-0.44-1.06c-0.29-0.26-0.66-0.46-1.06-0.44      C216.38,230.14,215.98,230.26,215.71,230.56L215.71,230.56z"/>
			</g>
		</g>
		<g>
			<g>
				<path class="st2" d="M215.67,234.79c0.06-0.21,0.13-0.42,0.22-0.62c-0.05,0.12-0.1,0.24-0.15,0.36c0.18-0.41,0.4-0.8,0.67-1.15      c-0.08,0.1-0.16,0.2-0.23,0.3c0.25-0.32,0.53-0.61,0.85-0.86c-0.1,0.08-0.2,0.16-0.3,0.23c0.05-0.04,0.11-0.08,0.17-0.12      c0.33-0.23,0.58-0.5,0.69-0.9c0.1-0.36,0.05-0.84-0.15-1.16c-0.21-0.32-0.51-0.6-0.9-0.69c-0.37-0.09-0.83-0.08-1.16,0.15      c-0.33,0.23-0.65,0.48-0.94,0.77c-0.28,0.29-0.53,0.61-0.76,0.94c-0.41,0.58-0.7,1.26-0.9,1.94c-0.11,0.37-0.04,0.82,0.15,1.16      c0.18,0.31,0.54,0.61,0.9,0.69c0.38,0.09,0.82,0.07,1.16-0.15C215.31,235.47,215.56,235.18,215.67,234.79L215.67,234.79z"/>
			</g>
		</g>
		<g>
			<g>
				<path class="st2" d="M215.2,233.11c-0.01,0-0.03,0.01-0.04,0.01c0.13-0.02,0.27-0.04,0.4-0.05c-0.03,0-0.06,0-0.08,0      c0.13,0.02,0.27,0.04,0.4,0.05c-0.01,0-0.03-0.01-0.04-0.01c0.12,0.05,0.24,0.1,0.36,0.15c-0.03-0.01-0.05-0.03-0.07-0.04      c0.1,0.08,0.2,0.16,0.3,0.23c-0.02-0.02-0.04-0.04-0.06-0.07c0.08,0.1,0.16,0.2,0.23,0.3c-0.03-0.04-0.05-0.09-0.08-0.13      c0.05,0.12,0.1,0.24,0.15,0.36c-0.05-0.11-0.07-0.22-0.09-0.33c0.02,0.13,0.04,0.27,0.05,0.4c-0.03-0.3,0.02-0.6,0.06-0.9      c-0.02,0.13-0.04,0.27-0.05,0.4c0.11-0.79,0.32-1.57,0.62-2.31c-0.05,0.12-0.1,0.24-0.15,0.36c0.13-0.3,0.27-0.59,0.42-0.87      c0.38-0.69,0.19-1.67-0.54-2.05c-0.71-0.37-1.65-0.19-2.05,0.54c-0.57,1.03-0.98,2.17-1.17,3.33c-0.11,0.68-0.24,1.4-0.05,2.07      c0.28,1.01,1.21,1.73,2.28,1.46c0.76-0.2,1.29-1.08,1.05-1.85C216.79,233.37,216.01,232.9,215.2,233.11L215.2,233.11z"/>
			</g>
		</g>
		<g>
			<g>
				<path class="st2" d="M214.69,232.58c-0.49,0.06-0.97,0.13-1.43,0.31c-0.45,0.18-0.89,0.37-1.29,0.66      c-0.17,0.09-0.32,0.22-0.42,0.39c-0.13,0.14-0.22,0.31-0.27,0.51c-0.06,0.2-0.07,0.4-0.03,0.6c0.01,0.2,0.07,0.39,0.18,0.56      c0.21,0.32,0.51,0.6,0.9,0.69c0.37,0.08,0.83,0.08,1.16-0.15c0.26-0.18,0.53-0.34,0.82-0.46c-0.12,0.05-0.24,0.1-0.36,0.15      c0.33-0.14,0.68-0.23,1.04-0.28c-0.13,0.02-0.27,0.04-0.4,0.05c0.03,0,0.07-0.01,0.1-0.01c0.21,0.01,0.4-0.04,0.58-0.13      c0.19-0.06,0.35-0.16,0.48-0.31c0.15-0.14,0.25-0.3,0.31-0.48c0.09-0.18,0.14-0.37,0.13-0.58c-0.02-0.39-0.14-0.79-0.44-1.06      c-0.1-0.08-0.2-0.16-0.3-0.23C215.21,232.65,214.96,232.58,214.69,232.58L214.69,232.58z"/>
			</g>
		</g>
		<g>
			<g>
				<path class="st2" d="M217.35,231.43c-1.36-0.07-2.71-0.14-4.07-0.21c-0.78-0.04-1.54,0.72-1.5,1.5c0.04,0.85,0.66,1.46,1.5,1.5      c1.36,0.07,2.71,0.14,4.07,0.21c0.78,0.04,1.54-0.72,1.5-1.5C218.81,232.08,218.19,231.47,217.35,231.43L217.35,231.43z"/>
			</g>
		</g>
		<g>
			<g>
				<path class="st2" d="M215.55,231.24c-0.63,0.11-1.26,0.22-1.89,0.32c-0.2,0.05-0.37,0.14-0.51,0.27      c-0.16,0.11-0.29,0.25-0.39,0.42c-0.11,0.17-0.17,0.36-0.18,0.56c-0.04,0.2-0.04,0.4,0.03,0.6c0.12,0.36,0.34,0.71,0.69,0.9      c0.12,0.05,0.24,0.1,0.36,0.15c0.27,0.07,0.53,0.07,0.8,0c0.63-0.11,1.26-0.22,1.89-0.32c0.2-0.05,0.37-0.14,0.51-0.27      c0.16-0.11,0.29-0.25,0.39-0.42c0.11-0.17,0.17-0.36,0.18-0.56c0.04-0.2,0.04-0.4-0.03-0.6c-0.12-0.36-0.34-0.71-0.69-0.9      c-0.12-0.05-0.24-0.1-0.36-0.15C216.08,231.17,215.82,231.17,215.55,231.24L215.55,231.24z"/>
			</g>
		</g>
		<g>
			<g>
				<path class="st2" d="M214.4,232.03c-0.14,0.03-0.28,0.06-0.42,0.1c-0.2,0.05-0.37,0.14-0.51,0.27      c-0.16,0.11-0.29,0.25-0.39,0.42c-0.11,0.17-0.17,0.36-0.18,0.56c-0.04,0.2-0.04,0.4,0.03,0.6c0.05,0.12,0.1,0.24,0.15,0.36      c0.13,0.23,0.31,0.4,0.54,0.54c0.12,0.05,0.24,0.1,0.36,0.15c0.27,0.07,0.53,0.07,0.8,0c0.14-0.03,0.28-0.06,0.42-0.1      c0.2-0.05,0.37-0.14,0.51-0.27c0.16-0.11,0.29-0.25,0.39-0.42c0.11-0.17,0.17-0.36,0.18-0.56c0.04-0.2,0.04-0.4-0.03-0.6      c-0.05-0.12-0.1-0.24-0.15-0.36c-0.13-0.23-0.31-0.4-0.54-0.54c-0.12-0.05-0.24-0.1-0.36-0.15      C214.94,231.96,214.67,231.96,214.4,232.03L214.4,232.03z"/>
			</g>
		</g>
		<g>
			<g>
				<path class="st2" d="M214.76,235.17c1.93,0,1.93-3,0-3C212.83,232.17,212.83,235.17,214.76,235.17L214.76,235.17z"/>
			</g>
		</g>
		<g>
			<g>
				<path class="st2" d="M215.38,234.97c-0.03-0.5-0.01-1.01,0.06-1.51c-0.02,0.13-0.04,0.27-0.05,0.4c0.09-0.63,0.25-1.25,0.5-1.83      c-0.05,0.12-0.1,0.24-0.15,0.36c0.01-0.02,0.02-0.04,0.02-0.06c0.11-0.17,0.17-0.36,0.18-0.56c0.04-0.2,0.04-0.4-0.03-0.6      c-0.1-0.35-0.36-0.72-0.69-0.9c-0.35-0.18-0.77-0.28-1.16-0.15c-0.34,0.11-0.75,0.34-0.9,0.69c-0.28,0.65-0.51,1.3-0.63,2      c-0.12,0.71-0.19,1.43-0.15,2.15c0.02,0.4,0.15,0.77,0.44,1.06c0.26,0.26,0.69,0.46,1.06,0.44c0.39-0.02,0.79-0.14,1.06-0.44      C215.2,235.74,215.4,235.37,215.38,234.97L215.38,234.97z"/>
			</g>
		</g>
		<g>
			<g>
				<path class="st2" d="M215.26,231.39c-0.03,0.03-0.06,0.06-0.09,0.08c0.1-0.08,0.2-0.16,0.3-0.23c-0.05,0.04-0.11,0.07-0.17,0.1      c0.12-0.05,0.24-0.1,0.36-0.15c-0.08,0.03-0.15,0.05-0.23,0.06c0.13-0.02,0.27-0.04,0.4-0.05c-0.13,0.01-0.25,0.01-0.38,0      c0.13,0.02,0.27,0.04,0.4,0.05c-0.39-0.05-0.74-0.21-1.13-0.29c-0.47-0.09-0.83-0.11-1.3-0.03c-0.39,0.07-0.73,0.27-1.03,0.53      c-0.47,0.42-0.69,1.04-0.73,1.66c-0.02,0.31,0.06,0.61,0.18,0.89c0.17,0.41,0.44,0.7,0.81,0.95c0.31,0.21,0.8,0.25,1.16,0.15      c0.35-0.1,0.73-0.36,0.9-0.69c0.18-0.35,0.28-0.77,0.15-1.16c-0.12-0.39-0.35-0.67-0.69-0.9c-0.01-0.01-0.02-0.01-0.03-0.02      c0.1,0.08,0.2,0.16,0.3,0.23c-0.03-0.03-0.06-0.05-0.09-0.09c0.08,0.1,0.16,0.2,0.23,0.3c-0.03-0.04-0.06-0.08-0.08-0.13      c0.05,0.12,0.1,0.24,0.15,0.36c-0.02-0.05-0.03-0.1-0.04-0.15c0.02,0.13,0.04,0.27,0.05,0.4c-0.01-0.08-0.01-0.15,0-0.23      c-0.02,0.13-0.04,0.27-0.05,0.4c0.01-0.08,0.03-0.15,0.06-0.22c-0.05,0.12-0.1,0.24-0.15,0.36c0.03-0.07,0.07-0.14,0.11-0.2      c-0.08,0.1-0.16,0.2-0.23,0.3c0.03-0.04,0.07-0.08,0.11-0.11c-0.1,0.08-0.2,0.16-0.3,0.23c0.04-0.03,0.08-0.06,0.13-0.08      c-0.12,0.05-0.24,0.1-0.36,0.15c0.08-0.03,0.15-0.05,0.24-0.06c-0.13,0.02-0.27,0.04-0.4,0.05c0.12-0.01,0.23-0.01,0.35,0      c-0.13-0.02-0.27-0.04-0.4-0.05c0.44,0.06,0.84,0.25,1.28,0.32c0.46,0.07,0.79,0.09,1.26-0.01c0.4-0.08,0.79-0.32,1.08-0.61      c0.27-0.27,0.44-0.68,0.44-1.06c0-0.37-0.16-0.81-0.44-1.06c-0.29-0.26-0.66-0.46-1.06-0.44      C215.93,230.97,215.55,231.1,215.26,231.39L215.26,231.39z"/>
			</g>
		</g>
		<g>
			<g>
				<path class="st2" d="M215.8,233.71c0.01-0.03,0.02-0.05,0.03-0.08c-0.05,0.12-0.1,0.24-0.15,0.36c0.2-0.46,0.45-0.89,0.75-1.28      c-0.08,0.1-0.16,0.2-0.23,0.3c0.29-0.37,0.62-0.71,0.99-0.99c-0.1,0.08-0.2,0.16-0.3,0.23c0.2-0.15,0.41-0.29,0.63-0.41      c0.33-0.18,0.59-0.54,0.69-0.9c0.1-0.36,0.05-0.84-0.15-1.16c-0.21-0.32-0.51-0.6-0.9-0.69c-0.4-0.09-0.79-0.05-1.16,0.15      c-0.65,0.36-1.25,0.85-1.74,1.41c-0.28,0.33-0.55,0.67-0.77,1.04c-0.24,0.39-0.42,0.8-0.59,1.22c-0.06,0.2-0.07,0.4-0.03,0.6      c0.01,0.2,0.07,0.39,0.18,0.56c0.18,0.31,0.54,0.61,0.9,0.69c0.38,0.09,0.81,0.07,1.16-0.15c0.1-0.08,0.2-0.16,0.3-0.23      C215.6,234.18,215.73,233.96,215.8,233.71L215.8,233.71z"/>
			</g>
		</g>
		<g>
			<g>
				<path class="st2" d="M215.12,233.93c0.09-0.12,0.18-0.24,0.27-0.36c0.11-0.17,0.17-0.36,0.18-0.56c0.04-0.2,0.04-0.4-0.03-0.6      c-0.05-0.2-0.14-0.37-0.27-0.51c-0.11-0.16-0.25-0.29-0.42-0.39c-0.12-0.05-0.24-0.1-0.36-0.15c-0.27-0.07-0.53-0.07-0.8,0      c-0.12,0.05-0.24,0.1-0.36,0.15c-0.23,0.13-0.4,0.31-0.54,0.54c-0.09,0.12-0.18,0.24-0.27,0.36c-0.11,0.17-0.17,0.36-0.18,0.56      c-0.04,0.2-0.04,0.4,0.03,0.6c0.05,0.2,0.14,0.37,0.27,0.51c0.11,0.16,0.25,0.29,0.42,0.39c0.12,0.05,0.24,0.1,0.36,0.15      c0.27,0.07,0.53,0.07,0.8,0c0.12-0.05,0.24-0.1,0.36-0.15C214.81,234.33,214.99,234.15,215.12,233.93L215.12,233.93z"/>
			</g>
		</g>
		<g>
			<g>
				<path class="st2" d="M218.17,231.19c-0.48-0.3-1-0.43-1.56-0.49c-0.15-0.01-0.3-0.01-0.45,0c-0.26,0.03-0.53,0.06-0.78,0.14      c-0.51,0.18-0.95,0.42-1.35,0.8c-0.41,0.38-0.66,0.85-0.85,1.37c-0.13,0.35-0.03,0.85,0.15,1.16c0.18,0.31,0.54,0.61,0.9,0.69      c0.38,0.09,0.82,0.07,1.16-0.15c0.1-0.08,0.2-0.16,0.3-0.23c0.19-0.19,0.31-0.41,0.39-0.66c0.01-0.03,0.03-0.07,0.04-0.1      c-0.05,0.12-0.1,0.24-0.15,0.36c0.06-0.14,0.14-0.27,0.24-0.4c-0.08,0.1-0.16,0.2-0.23,0.3c0.09-0.12,0.2-0.22,0.32-0.32      c-0.1,0.08-0.2,0.16-0.3,0.23c0.14-0.11,0.28-0.19,0.44-0.26c-0.12,0.05-0.24,0.1-0.36,0.15c0.16-0.06,0.32-0.11,0.5-0.13      c-0.13,0.02-0.27,0.04-0.4,0.05c0.16-0.02,0.32-0.02,0.48,0c-0.13-0.02-0.27-0.04-0.4-0.05c0.16,0.02,0.32,0.06,0.47,0.13      c-0.12-0.05-0.24-0.1-0.36-0.15c0.1,0.04,0.2,0.09,0.29,0.15c0.32,0.2,0.79,0.25,1.16,0.15c0.35-0.1,0.72-0.36,0.9-0.69      c0.18-0.35,0.28-0.77,0.15-1.16C218.73,231.7,218.51,231.4,218.17,231.19L218.17,231.19z"/>
			</g>
		</g>
		<path class="st3" d="M89.64,193.39c-0.26,0.06-0.51,0.13-0.76,0.22c-0.46,0.14-0.93,0.18-1.4,0.14L63.32,333.06l128.51,38.07    c0.32-0.23,0.67-0.42,1.03-0.54c0.36-0.12,0.71-0.25,1.07-0.36c0.17-0.06,0.35-0.08,0.53-0.12c0.26-0.18,0.55-0.32,0.87-0.4    c0.37-0.16,0.75-0.29,1.14-0.43c0.03-0.02,0.06-0.05,0.09-0.07c0.1-0.08,0.22-0.12,0.33-0.18c0.45-0.37,0.97-0.64,1.58-0.73    c0.23-0.31,0.5-0.58,0.83-0.79c0.46-0.33,0.97-0.52,1.53-0.54c0.44-0.11,0.89-0.11,1.35-0.01c0.25-0.04,0.5-0.08,0.74-0.16    c0.28-0.1,0.56-0.15,0.85-0.16c0.25-0.08,0.52-0.14,0.79-0.16c0.17-0.03,0.34-0.06,0.51-0.09c0.3-0.13,0.61-0.22,0.94-0.23    c0.13-0.03,0.27-0.05,0.41-0.06c0.02-0.01,0.04-0.02,0.06-0.03c0.02-0.01,0.03-0.01,0.05-0.02c0.02-0.01,0.04-0.01,0.05-0.01    c0.11-0.02,0.25-0.05,0.41-0.07c0.06-0.02,0.12-0.03,0.18-0.04c0.04-0.03,0.08-0.06,0.13-0.08c0.04-0.02,0.09-0.04,0.13-0.07    c0.21-0.25,0.45-0.47,0.73-0.64c0.14-0.09,0.28-0.18,0.42-0.28c0.2-0.22,0.42-0.42,0.68-0.58c0.4-0.29,0.85-0.45,1.33-0.5    c0.21-0.08,0.43-0.14,0.66-0.18c0.11-0.05,0.21-0.1,0.32-0.15c0.02-0.01,0.03-0.01,0.05-0.02c0.02-0.01,0.04-0.01,0.05-0.01    c0.11-0.02,0.25-0.05,0.41-0.07c0.35-0.11,0.72-0.17,1.11-0.17c0.11,0.02,0.21,0.03,0.32,0.05c0.06-0.01,0.12-0.02,0.18-0.03    c0.12-0.06,0.23-0.13,0.36-0.18c0.14-0.07,0.3-0.11,0.45-0.17c0.13-0.06,0.27-0.1,0.41-0.14c0.25-0.36,0.54-0.67,0.91-0.9    c0.05-0.03,0.1-0.07,0.15-0.1c0.6-0.4,1.27-0.6,1.99-0.62c0.72-0.7,1.7-1.08,2.91-0.91c0.26-0.41,0.57-0.76,0.98-1.01    c0.46-0.33,0.97-0.52,1.53-0.54c0.18-0.04,0.36-0.06,0.54-0.07c0.14-0.02,0.28-0.03,0.42-0.03c0.28,0.04,0.55,0.08,0.83,0.12    c0.43-0.38,0.94-0.66,1.54-0.77c0.11-0.09,0.2-0.19,0.32-0.26c0.33-0.24,0.7-0.37,1.09-0.46c0.35-0.13,0.73-0.2,1.12-0.22    c0.09-0.07,0.17-0.16,0.27-0.22c0.4-0.29,0.85-0.45,1.33-0.51c0.41-0.16,0.85-0.24,1.31-0.25c0.21,0.03,0.41,0.06,0.62,0.09    c0.36-0.23,0.75-0.41,1.2-0.49c0.82-1.32,2.26-2.11,4.2-1.53c0.29,0.08,0.55,0.19,0.8,0.32c0.02,0,0.05-0.01,0.07-0.01    c0.37-0.37,0.81-0.64,1.32-0.77c0.31-0.07,0.63-0.1,0.95-0.14c0.68-0.61,1.58-0.95,2.66-0.84c0.61-0.6,1.39-0.98,2.36-0.97    c0,0,0.01,0,0.01,0c0.11-0.28,0.26-0.53,0.44-0.77c0.27-0.52,0.65-0.92,1.13-1.22c0.46-0.33,0.97-0.52,1.53-0.54    c0.24-0.06,0.48-0.07,0.72-0.07c0.56-0.38,1.23-0.6,2-0.57c0.27-0.18,0.55-0.33,0.87-0.41c0.1-0.02,0.19-0.06,0.28-0.09    c0.52-0.26,1.08-0.4,1.68-0.41c0.02,0,0.03,0,0.05,0.01c0.36-0.23,0.75-0.4,1.2-0.47l24.16-139.37L149.7,168.98    c-0.6,0.96-1.54,1.63-2.75,1.7c-0.52,0.47-1.16,0.78-1.91,0.86c-0.18,0.18-0.37,0.35-0.6,0.48c-0.3,0.22-0.63,0.35-0.98,0.44    c-0.1,0.04-0.17,0.08-0.19,0.09c-0.01,0-0.02,0.01-0.02,0.01c-0.04,0.01-0.52,0.09-0.84,0.13c-0.85,1.03-2.17,1.57-3.87,1.07    c-0.19-0.06-0.37-0.13-0.55-0.21c-0.37,0.49-0.84,0.88-1.39,1.12c-0.22,0.27-0.47,0.52-0.77,0.7c-0.46,0.33-0.97,0.52-1.53,0.54    c-0.54,0.13-1.1,0.11-1.66-0.08c-0.64,0.55-1.47,0.86-2.46,0.79c-0.08,0.05-0.17,0.1-0.25,0.15c-0.71,1.72-2.3,2.89-4.55,2.22    c-0.23-0.07-0.45-0.16-0.66-0.25c-0.04,0.03-0.07,0.06-0.11,0.09c-0.43,0.27-0.91,0.48-1.39,0.64c-0.02,0.01-0.03,0.01-0.05,0.02    c-0.02,0.01-0.04,0.01-0.06,0.02c-0.5,0.46-1.11,0.77-1.84,0.87c-0.59,0.67-1.38,1.11-2.36,1.17c-0.2,0.2-0.4,0.39-0.64,0.53    c-0.02,0.01-0.97,0.46-0.99,0.47c-0.01,0-0.01,0-0.02,0.01c-0.36,0.09-0.74,0.14-1.12,0.17c-0.01,0-0.02,0-0.03,0    c-0.19-0.01-1.12-0.16-0.59-0.09c-0.19-0.03-0.39-0.05-0.58-0.09c0,0,0,0,0,0c0,0-0.01,0-0.01,0c-0.05-0.01-0.09-0.04-0.14-0.05    c-0.18,0.18-0.37,0.35-0.6,0.48c-0.34,0.25-0.71,0.38-1.1,0.46c-0.71,1.72-2.3,2.89-4.55,2.22c-0.03-0.01-0.05-0.02-0.07-0.03    c-0.48,0.26-1.04,0.38-1.66,0.37c-0.43,0.27-0.92,0.43-1.47,0.48c-0.69,1.03-1.77,1.7-3.19,1.59c-0.42,0.27-0.88,0.44-1.38,0.47    c-0.06,0.02-0.13,0.02-0.19,0.03c-0.66,0.63-1.54,0.99-2.6,0.92c-0.06,0.04-0.12,0.08-0.18,0.12c-0.63,0.41-1.32,0.62-2.07,0.63    c-0.1-0.01-0.19-0.03-0.29-0.04c-0.55,0.71-1.32,1.18-2.26,1.3C92.5,192.75,91.28,193.58,89.64,193.39z"/>
		<path class="st4" d="M87.2,195.32c21.69-8.75,43.63-16.67,65.23-25.74"/>
		<path class="st4" d="M188.68,370.23c22.79-8.5,45.88-16.19,68.55-24.99"/>
		<path class="st1" d="M88.05,195.23l125.68,37.23c0.44,0.13,0.73,0.65,0.64,1.16l-23.62,136.22c-0.09,0.51-0.52,0.82-0.96,0.69    L64.12,333.29c-0.44-0.13-0.73-0.65-0.64-1.16L87.1,195.92C87.18,195.41,87.61,195.1,88.05,195.23z"/>
		<path class="st4" d="M63.51,331.96c23.2-9.23,46.67-17.59,69.77-27.15"/>
		<path class="st1" d="M153.12,169.99c0.28,0.08,114.32,33.87,114.33,33.87c0,0,7.01,2.08,7.01,2.08c1.21,0.36,2.41,0.72,3.62,1.07    c0.77,0.23,1.54,0.46,2.31,0.69c-0.44,2.56-0.89,5.12-1.33,7.69c-0.34,1.96-0.68,3.92-1.02,5.88c0,0-0.96,5.53-0.96,5.53    c0,0.01-20.6,118.85-20.63,118.97c-42.42-12.57-84.85-25.14-127.27-37.71L153.12,169.99z"/>
		<line class="st4" x1="190.75" y1="369.84" x2="213.48" y2="232.39"/>
		<line class="st4" x1="214.53" y1="232.7" x2="100.26" y2="198.85"/>
		<line class="st4" x1="280.23" y1="207.44" x2="214.6" y2="233.06"/>
	</g>
	<g>
		<g>
			<g>
				<path class="st2" d="M365.44,205.01c-0.42,0.98-0.95,1.9-1.6,2.74c0.08-0.1,0.16-0.2,0.23-0.3c-0.09,0.11-0.18,0.22-0.27,0.33      c-0.26,0.31-0.44,0.64-0.44,1.06c0,0.37,0.16,0.81,0.44,1.06c0.29,0.26,0.66,0.46,1.06,0.44c0.38-0.02,0.81-0.14,1.06-0.44      c0.85-1.03,1.58-2.15,2.1-3.38c0.11-0.17,0.17-0.36,0.18-0.56c0.04-0.2,0.04-0.4-0.03-0.6c-0.1-0.35-0.36-0.73-0.69-0.9      c-0.35-0.18-0.77-0.28-1.16-0.15C365.99,204.44,365.59,204.66,365.44,205.01L365.44,205.01z"/>
			</g>
		</g>
		<g>
			<g>
				<path class="st2" d="M366.67,209.48c-0.01-0.34,0.01-0.67,0.05-1c-0.02,0.13-0.04,0.27-0.05,0.4c0.07-0.5,0.2-0.99,0.4-1.46      c-0.05,0.12-0.1,0.24-0.15,0.36c0.14-0.34,0.32-0.66,0.52-0.96c0.21-0.31,0.25-0.8,0.15-1.16c-0.1-0.35-0.36-0.73-0.69-0.9      c-0.35-0.18-0.77-0.28-1.16-0.15c-0.39,0.12-0.67,0.35-0.9,0.69c-0.82,1.21-1.22,2.73-1.17,4.18c0.01,0.39,0.16,0.78,0.44,1.06      c0.26,0.26,0.69,0.46,1.06,0.44c0.39-0.02,0.79-0.14,1.06-0.44C366.49,210.25,366.68,209.88,366.67,209.48L366.67,209.48z"/>
			</g>
		</g>
		<g>
			<g>
				<path class="st2" d="M365.77,207.77c-0.03,0.02-0.05,0.04-0.09,0.05c0.12-0.05,0.24-0.1,0.36-0.15c-0.01,0-0.03,0.01-0.04,0.01      c0.13-0.02,0.27-0.04,0.4-0.05c-0.01,0-0.03,0-0.04,0c0.13,0.02,0.27,0.04,0.4,0.05c-0.03,0-0.06-0.01-0.09-0.02      c0.12,0.05,0.24,0.1,0.36,0.15c-0.03-0.01-0.06-0.03-0.09-0.05c0.1,0.08,0.2,0.16,0.3,0.23c-0.06-0.05-0.11-0.11-0.16-0.17      c0.08,0.1,0.16,0.2,0.23,0.3c-0.05-0.07-0.09-0.14-0.13-0.22c0.05,0.12,0.1,0.24,0.15,0.36c-0.16-0.38-0.21-0.82-0.27-1.23      c0.02,0.13,0.04,0.27,0.05,0.4c-0.11-0.85-0.12-1.72-0.01-2.57c-0.02,0.13-0.04,0.27-0.05,0.4c0.02-0.18,0.05-0.35,0.08-0.52      c0.07-0.4,0.06-0.79-0.15-1.16c-0.18-0.31-0.54-0.61-0.9-0.69c-0.74-0.17-1.69,0.22-1.85,1.05c-0.24,1.32-0.26,2.61-0.06,3.94      c0.08,0.58,0.19,1.21,0.5,1.71c0.21,0.33,0.48,0.62,0.82,0.81c0.52,0.29,1.28,0.33,1.78-0.04c0.32-0.24,0.58-0.49,0.69-0.9      c0.1-0.36,0.05-0.84-0.15-1.16c-0.21-0.32-0.51-0.6-0.9-0.69C366.56,207.53,366.09,207.53,365.77,207.77L365.77,207.77z"/>
			</g>
		</g>
		<g>
			<g>
				<path class="st2" d="M364.75,207.69c-0.17,0.1-0.33,0.2-0.48,0.31c-0.25,0.19-0.5,0.38-0.73,0.59      c-0.37,0.35-0.69,0.75-0.97,1.17c-0.11,0.17-0.17,0.36-0.18,0.56c-0.04,0.2-0.04,0.4,0.03,0.6c0.05,0.2,0.14,0.37,0.27,0.51      c0.11,0.16,0.25,0.29,0.42,0.39c0.35,0.18,0.77,0.28,1.16,0.15c0.12-0.05,0.24-0.1,0.36-0.15c0.23-0.13,0.4-0.31,0.54-0.54      c0.07-0.1,0.13-0.19,0.21-0.29c-0.08,0.1-0.16,0.2-0.23,0.3c0.25-0.33,0.55-0.62,0.88-0.88c-0.1,0.08-0.2,0.16-0.3,0.23      c0.18-0.14,0.36-0.26,0.56-0.37c0.17-0.09,0.32-0.22,0.42-0.39c0.13-0.14,0.22-0.31,0.27-0.51c0.06-0.2,0.07-0.4,0.03-0.6      c-0.01-0.2-0.07-0.39-0.18-0.56c-0.21-0.32-0.51-0.6-0.9-0.69C365.51,207.45,365.11,207.49,364.75,207.69L364.75,207.69z"/>
			</g>
		</g>
		<g>
			<g>
				<path class="st2" d="M367.3,205.34c-1.32,0.5-2.63,0.99-3.95,1.49c-0.37,0.14-0.69,0.33-0.9,0.69c-0.19,0.32-0.27,0.8-0.15,1.16      c0.12,0.36,0.34,0.71,0.69,0.9c0.34,0.18,0.78,0.29,1.16,0.15c1.32-0.5,2.63-0.99,3.95-1.49c0.37-0.14,0.69-0.33,0.9-0.69      c0.19-0.32,0.27-0.8,0.15-1.16c-0.12-0.36-0.34-0.71-0.69-0.9C368.11,205.31,367.67,205.2,367.3,205.34L367.3,205.34z"/>
			</g>
		</g>
		<g>
			<g>
				<path class="st2" d="M365.53,205.84c-0.57,0.37-1.14,0.73-1.71,1.1c-0.33,0.21-0.58,0.52-0.69,0.9c-0.06,0.2-0.07,0.4-0.03,0.6      c0.01,0.2,0.07,0.39,0.18,0.56c0.21,0.32,0.51,0.6,0.9,0.69c0.13,0.02,0.27,0.04,0.4,0.05c0.27,0,0.52-0.07,0.76-0.2      c0.57-0.37,1.14-0.73,1.71-1.1c0.33-0.21,0.58-0.52,0.69-0.9c0.06-0.2,0.07-0.4,0.03-0.6c-0.01-0.2-0.07-0.39-0.18-0.56      c-0.21-0.32-0.51-0.6-0.9-0.69c-0.13-0.02-0.27-0.04-0.4-0.05C366.02,205.63,365.76,205.7,365.53,205.84L365.53,205.84z"/>
			</g>
		</g>
		<g>
			<g>
				<path class="st2" d="M364.68,207.07c-0.13,0.09-0.25,0.18-0.38,0.27c-0.17,0.09-0.32,0.22-0.42,0.39      c-0.13,0.14-0.22,0.31-0.27,0.51c-0.06,0.2-0.07,0.4-0.03,0.6c0.01,0.2,0.07,0.39,0.18,0.56c0.08,0.1,0.16,0.2,0.23,0.3      c0.19,0.19,0.41,0.31,0.66,0.39c0.13,0.02,0.27,0.04,0.4,0.05c0.27,0,0.52-0.07,0.76-0.2c0.13-0.09,0.25-0.18,0.38-0.27      c0.17-0.09,0.32-0.22,0.42-0.39c0.13-0.14,0.22-0.31,0.27-0.51c0.06-0.2,0.07-0.4,0.03-0.6c-0.01-0.2-0.07-0.39-0.18-0.56      c-0.08-0.1-0.16-0.2-0.23-0.3c-0.19-0.19-0.41-0.31-0.66-0.39c-0.13-0.02-0.27-0.04-0.4-0.05      C365.17,206.86,364.91,206.93,364.68,207.07L364.68,207.07z"/>
			</g>
		</g>
		<g>
			<g>
				<path class="st2" d="M365.45,210.06c1.93,0,1.93-3,0-3C363.52,207.06,363.52,210.06,365.45,210.06L365.45,210.06z"/>
			</g>
		</g>
		<g>
			<g>
				<path class="st2" d="M366.46,209.77c-0.22-0.58-0.38-1.17-0.46-1.78c0.02,0.13,0.04,0.27,0.05,0.4      c-0.07-0.57-0.09-1.14-0.04-1.71c0.03-0.36-0.19-0.81-0.44-1.06c-0.26-0.26-0.69-0.46-1.06-0.44c-0.39,0.02-0.79,0.14-1.06,0.44      c-0.28,0.31-0.4,0.64-0.44,1.06c-0.11,1.3,0.09,2.67,0.56,3.89c0.14,0.38,0.33,0.69,0.69,0.9c0.32,0.19,0.8,0.27,1.16,0.15      c0.36-0.12,0.71-0.34,0.9-0.69C366.49,210.59,366.6,210.14,366.46,209.77L366.46,209.77z"/>
			</g>
		</g>
		<g>
			<g>
				<path class="st2" d="M365.27,205.99c-0.03,0.06-0.07,0.12-0.11,0.18c0.08-0.1,0.16-0.2,0.23-0.3c-0.05,0.06-0.11,0.12-0.17,0.17      c0.1-0.08,0.2-0.16,0.3-0.23c-0.09,0.07-0.19,0.13-0.3,0.17c0.12-0.05,0.24-0.1,0.36-0.15c-0.19,0.08-0.39,0.12-0.59,0.15      c0.13-0.02,0.27-0.04,0.4-0.05c-0.46,0.06-0.94,0.07-1.38,0.22c-0.61,0.21-1.22,0.58-1.51,1.18c-0.27,0.56-0.37,1.19-0.19,1.8      c0.11,0.35,0.27,0.64,0.52,0.91c0.12,0.13,0.26,0.23,0.41,0.32c0.12,0.07,0.27,0.13,0.4,0.17c0.03,0.01,0.07,0.02,0.1,0.03      c0.4,0.08,0.79,0.06,1.16-0.15c0.31-0.18,0.61-0.54,0.69-0.9c0.09-0.38,0.07-0.81-0.15-1.16c-0.2-0.31-0.52-0.62-0.9-0.69      c-0.03-0.01-0.07-0.02-0.1-0.03c0.12,0.05,0.24,0.1,0.36,0.15c-0.04-0.02-0.07-0.04-0.11-0.06c0.1,0.08,0.2,0.16,0.3,0.23      c-0.03-0.03-0.06-0.06-0.09-0.09c0.08,0.1,0.16,0.2,0.23,0.3c-0.03-0.04-0.05-0.09-0.08-0.14c0.05,0.12,0.1,0.24,0.15,0.36      c-0.03-0.07-0.04-0.14-0.05-0.21c0.02,0.13,0.04,0.27,0.05,0.4c-0.01-0.09-0.01-0.17,0-0.26c-0.02,0.13-0.04,0.27-0.05,0.4      c0.01-0.08,0.03-0.15,0.06-0.22c-0.05,0.12-0.1,0.24-0.15,0.36c0.03-0.06,0.06-0.12,0.1-0.17c-0.08,0.1-0.16,0.2-0.23,0.3      c0.04-0.05,0.09-0.1,0.14-0.14c-0.1,0.08-0.2,0.16-0.3,0.23c0.08-0.06,0.17-0.11,0.27-0.16c-0.12,0.05-0.24,0.1-0.36,0.15      c0.2-0.08,0.41-0.12,0.62-0.15c-0.13,0.02-0.27,0.04-0.4,0.05c0.46-0.06,0.95-0.07,1.39-0.23c0.41-0.15,0.69-0.31,1.03-0.58      c0.06-0.05,0.12-0.11,0.17-0.17c0.12-0.15,0.26-0.31,0.34-0.49c0.11-0.17,0.17-0.36,0.18-0.56c0.04-0.2,0.04-0.4-0.03-0.6      c-0.1-0.35-0.36-0.73-0.69-0.9c-0.35-0.18-0.77-0.28-1.16-0.15C365.82,205.42,365.43,205.64,365.27,205.99L365.27,205.99z"/>
			</g>
		</g>
		<g>
			<g>
				<path class="st2" d="M366.46,208.39c0.01-0.14,0.03-0.29,0.04-0.43c-0.02,0.13-0.04,0.27-0.05,0.4c0.08-0.58,0.24-1.15,0.47-1.7      c-0.05,0.12-0.1,0.24-0.15,0.36c0.21-0.5,0.48-0.96,0.81-1.39c-0.08,0.1-0.16,0.2-0.23,0.3c0.04-0.05,0.07-0.09,0.11-0.14      c0.26-0.32,0.44-0.64,0.44-1.06c0-0.37-0.16-0.81-0.44-1.06c-0.29-0.26-0.66-0.46-1.06-0.44c-0.37,0.02-0.81,0.14-1.06,0.44      c-0.28,0.34-0.55,0.7-0.78,1.08c-0.24,0.4-0.42,0.82-0.59,1.25c-0.3,0.76-0.45,1.57-0.51,2.38c-0.03,0.37,0.19,0.81,0.44,1.06      c0.26,0.26,0.69,0.46,1.06,0.44c0.39-0.02,0.79-0.14,1.06-0.44C366.3,209.14,366.42,208.8,366.46,208.39L366.46,208.39z"/>
			</g>
		</g>
		<g>
			<g>
				<path class="st2" d="M365.85,208.87c0.05-0.15,0.09-0.31,0.14-0.46c0.06-0.2,0.07-0.4,0.03-0.6c-0.01-0.2-0.07-0.39-0.18-0.56      c-0.09-0.17-0.22-0.32-0.39-0.42c-0.14-0.13-0.31-0.22-0.51-0.27c-0.13-0.02-0.27-0.04-0.4-0.05c-0.27,0-0.52,0.07-0.76,0.2      c-0.1,0.08-0.2,0.16-0.3,0.23c-0.19,0.19-0.31,0.41-0.39,0.66c-0.05,0.15-0.09,0.31-0.14,0.46c-0.06,0.2-0.07,0.4-0.03,0.6      c0.01,0.2,0.07,0.39,0.18,0.56c0.09,0.17,0.22,0.32,0.39,0.42c0.14,0.13,0.31,0.22,0.51,0.27c0.13,0.02,0.27,0.04,0.4,0.05      c0.27,0,0.52-0.07,0.76-0.2c0.1-0.08,0.2-0.16,0.3-0.23C365.65,209.34,365.78,209.12,365.85,208.87L365.85,208.87z"/>
			</g>
		</g>
		<g>
			<g>
				<path class="st2" d="M368.01,204.88c-0.56-0.09-1.1-0.11-1.65,0.06c-0.54,0.17-0.97,0.43-1.4,0.8c-0.12,0.1-0.23,0.22-0.33,0.34      c-0.17,0.21-0.34,0.42-0.46,0.66c-0.26,0.52-0.41,1.04-0.43,1.62c-0.01,0.37,0.18,0.8,0.44,1.06c0.26,0.26,0.69,0.46,1.06,0.44      c0.39-0.02,0.79-0.14,1.06-0.44c0.28-0.3,0.42-0.65,0.44-1.06c0-0.07,0.01-0.14,0.02-0.2c-0.02,0.13-0.04,0.27-0.05,0.4      c0.03-0.19,0.08-0.37,0.15-0.54c-0.05,0.12-0.1,0.24-0.15,0.36c0.08-0.17,0.17-0.33,0.28-0.48c-0.08,0.1-0.16,0.2-0.23,0.3      c0.12-0.15,0.26-0.29,0.41-0.41c-0.1,0.08-0.2,0.16-0.3,0.23c0.15-0.11,0.3-0.2,0.47-0.27c-0.12,0.05-0.24,0.1-0.36,0.15      c0.16-0.06,0.32-0.11,0.49-0.14c-0.13,0.02-0.27,0.04-0.4,0.05c0.16-0.02,0.32-0.02,0.48,0c-0.13-0.02-0.27-0.04-0.4-0.05      c0.02,0,0.04,0.01,0.06,0.01c0.2,0.06,0.4,0.07,0.6,0.03c0.2-0.01,0.39-0.07,0.56-0.18c0.31-0.18,0.61-0.54,0.69-0.9      c0.09-0.38,0.07-0.81-0.15-1.16C368.71,205.26,368.39,204.95,368.01,204.88L368.01,204.88z"/>
			</g>
		</g>
		<path class="st5" d="M233.41,221.79c-0.22,0.17-0.45,0.34-0.66,0.53c-0.4,0.32-0.83,0.56-1.3,0.72l20.29,143.35l134.43-16.87    c0.24-0.35,0.5-0.68,0.82-0.95c0.31-0.26,0.6-0.53,0.91-0.79c0.15-0.13,0.31-0.23,0.47-0.34c0.2-0.28,0.42-0.53,0.7-0.74    c0.3-0.31,0.63-0.59,0.95-0.88c0.02-0.03,0.04-0.07,0.06-0.11c0.08-0.12,0.17-0.2,0.26-0.31c0.31-0.54,0.73-1.01,1.28-1.36    c0.13-0.39,0.29-0.77,0.55-1.1c0.34-0.51,0.77-0.9,1.29-1.15c0.39-0.29,0.81-0.47,1.28-0.56c0.23-0.14,0.45-0.28,0.65-0.46    c0.23-0.21,0.49-0.38,0.76-0.51c0.22-0.19,0.45-0.35,0.71-0.48c0.15-0.1,0.3-0.2,0.46-0.3c0.25-0.25,0.51-0.46,0.83-0.62    c0.12-0.09,0.24-0.16,0.37-0.23c0.02-0.02,0.03-0.04,0.05-0.05c0.01-0.01,0.03-0.03,0.04-0.04c0.02-0.01,0.03-0.02,0.05-0.03    c0.1-0.07,0.23-0.15,0.37-0.24c0.05-0.04,0.11-0.08,0.16-0.12c0.03-0.04,0.06-0.09,0.1-0.13c0.03-0.04,0.07-0.08,0.1-0.12    c0.12-0.33,0.28-0.64,0.5-0.92c0.1-0.15,0.21-0.29,0.31-0.44c0.12-0.3,0.27-0.58,0.47-0.84c0.29-0.45,0.67-0.78,1.11-1.03    c0.18-0.16,0.37-0.31,0.57-0.45c0.09-0.09,0.17-0.18,0.26-0.28c0.01-0.01,0.03-0.03,0.04-0.04c0.02-0.01,0.03-0.02,0.05-0.03    c0.1-0.07,0.23-0.15,0.37-0.24c0.3-0.25,0.64-0.46,1.01-0.62c0.11-0.03,0.21-0.06,0.32-0.09c0.06-0.03,0.11-0.07,0.17-0.1    c0.09-0.11,0.18-0.22,0.28-0.32c0.11-0.13,0.25-0.23,0.37-0.34c0.11-0.11,0.23-0.21,0.35-0.31c0.12-0.45,0.3-0.87,0.59-1.24    c0.04-0.05,0.08-0.11,0.12-0.16c0.45-0.63,1.02-1.1,1.71-1.42c0.47-0.97,1.29-1.74,2.49-2.07c0.12-0.5,0.31-0.96,0.63-1.37    c0.34-0.51,0.77-0.9,1.29-1.15c0.16-0.12,0.32-0.21,0.49-0.29c0.13-0.07,0.26-0.14,0.39-0.21c0.28-0.08,0.55-0.15,0.83-0.23    c0.29-0.54,0.69-1.02,1.23-1.38c0.08-0.13,0.13-0.26,0.23-0.38c0.24-0.37,0.55-0.65,0.89-0.89c0.3-0.27,0.63-0.49,1-0.67    c0.06-0.1,0.11-0.22,0.19-0.32c0.29-0.45,0.67-0.78,1.11-1.03c0.35-0.32,0.73-0.59,1.17-0.78c0.21-0.06,0.41-0.11,0.62-0.17    c0.27-0.37,0.59-0.7,0.99-0.96c0.37-1.6,1.5-2.95,3.52-3.21c0.3-0.04,0.58-0.04,0.86-0.03c0.02-0.01,0.04-0.03,0.06-0.04    c0.24-0.51,0.57-0.95,1.02-1.29c0.28-0.19,0.57-0.36,0.86-0.53c0.46-0.87,1.21-1.56,2.28-1.9c0.4-0.82,1.03-1.52,1.95-1.91    c0,0,0,0,0.01-0.01c0.02-0.31,0.08-0.62,0.18-0.91c0.1-0.61,0.33-1.15,0.7-1.63c0.34-0.51,0.77-0.9,1.29-1.15    c0.21-0.15,0.43-0.27,0.67-0.36c0.41-0.59,0.99-1.08,1.73-1.38c0.2-0.28,0.43-0.54,0.71-0.76c0.09-0.06,0.16-0.13,0.24-0.2    c0.42-0.47,0.91-0.83,1.48-1.09c0.02,0,0.03-0.01,0.05-0.01c0.27-0.36,0.59-0.69,1-0.94l-20.3-143.4l-136.71,17.16    c-0.27,1.17-0.96,2.2-2.09,2.77c-0.35,0.66-0.86,1.23-1.56,1.61c-0.11,0.25-0.25,0.49-0.42,0.71c-0.22,0.34-0.5,0.6-0.8,0.82    c-0.08,0.08-0.14,0.14-0.15,0.16c-0.01,0.01-0.01,0.01-0.02,0.02c-0.03,0.03-0.47,0.3-0.76,0.47c-0.49,1.34-1.59,2.4-3.36,2.63    c-0.2,0.03-0.4,0.03-0.59,0.03c-0.2,0.62-0.53,1.19-0.98,1.65c-0.12,0.35-0.28,0.69-0.52,0.99c-0.34,0.51-0.77,0.9-1.29,1.15    c-0.48,0.35-1.01,0.56-1.61,0.61c-0.44,0.79-1.14,1.43-2.1,1.77c-0.05,0.09-0.13,0.16-0.19,0.24c-0.14,1.94-1.3,3.72-3.65,4.02    c-0.24,0.03-0.48,0.04-0.71,0.03c-0.03,0.04-0.05,0.09-0.08,0.13c-0.33,0.44-0.71,0.84-1.12,1.19c-0.01,0.01-0.03,0.03-0.04,0.04    c-0.01,0.02-0.03,0.03-0.05,0.04c-0.33,0.65-0.82,1.2-1.48,1.59c-0.35,0.89-0.98,1.64-1.89,2.09c-0.12,0.27-0.26,0.54-0.44,0.77    c-0.02,0.02-0.78,0.84-0.8,0.86c0,0-0.01,0.01-0.01,0.01c-0.32,0.24-0.66,0.44-1.01,0.62c-0.01,0-0.02,0.01-0.03,0.01    c-0.18,0.06-1.12,0.31-0.58,0.16c-0.19,0.06-0.39,0.11-0.58,0.16c0,0,0,0,0,0c0,0-0.01,0-0.01,0c-0.05,0.01-0.1,0-0.15,0.01    c-0.11,0.25-0.25,0.49-0.42,0.71c-0.25,0.38-0.56,0.66-0.91,0.9c-0.14,1.94-1.3,3.72-3.65,4.02c-0.03,0-0.05,0-0.08,0    c-0.38,0.44-0.87,0.8-1.46,1.04c-0.32,0.43-0.75,0.8-1.26,1.07c-0.33,1.27-1.17,2.36-2.54,2.85c-0.32,0.44-0.7,0.79-1.18,1.02    c-0.06,0.04-0.12,0.07-0.17,0.11c-0.43,0.88-1.16,1.59-2.19,1.96c-0.05,0.06-0.09,0.13-0.14,0.19c-0.47,0.65-1.06,1.14-1.78,1.46    c-0.1,0.03-0.19,0.05-0.29,0.08c-0.3,0.91-0.89,1.68-1.75,2.18C235.94,219.99,235.04,221.3,233.41,221.79z"/>
		<path class="st6" d="M231.7,224.8c17.17-16.77,34.82-32.87,51.81-49.89"/>
		<path class="st6" d="M383.02,349.9c18.58-17.22,37.69-33.82,56.07-51.28"/>
		<path class="st7" d="M233.33,224.59l129.69-16.28c0.9-0.11,1.75,0.65,1.9,1.7l19.5,137.78c0.15,1.05-0.46,1.99-1.36,2.11    l-129.69,16.28c-0.9,0.11-1.75-0.65-1.9-1.7l-19.5-137.78C231.82,225.65,232.43,224.71,233.33,224.59z"/>
		<path class="st6" d="M251.58,365.22c19.29-18.44,39.1-36.16,58.19-54.88"/>
		<polygon class="st7" points="284.55,174.78 417.5,158.09 437.54,299.67 304.59,316.36   "/>
		<line class="st6" x1="384.87" y1="349.08" x2="363.9" y2="208.8"/>
		<line class="st6" x1="365.11" y1="208.05" x2="244.99" y2="223.13"/>
		<line class="st6" x1="419.2" y1="156.43" x2="364.49" y2="208.13"/>
	</g>
	<g>
		<g>
			<g>
				<path class="st2" d="M205.4,171.69c0.14-0.2,0.28-0.4,0.42-0.59c-0.08,0.1-0.16,0.2-0.23,0.3c0.52-0.67,1.11-1.28,1.76-1.81      c0.15-0.14,0.25-0.3,0.31-0.48c0.09-0.18,0.14-0.37,0.13-0.58c0-0.37-0.16-0.81-0.44-1.06c-0.29-0.26-0.66-0.46-1.06-0.44      c-0.13,0.02-0.27,0.04-0.4,0.05c-0.25,0.07-0.47,0.2-0.66,0.39c-0.94,0.77-1.74,1.7-2.42,2.7c-0.11,0.17-0.17,0.36-0.18,0.56      c-0.04,0.2-0.04,0.4,0.03,0.6c0.1,0.35,0.36,0.73,0.69,0.9c0.35,0.18,0.77,0.28,1.16,0.15c0.12-0.05,0.24-0.1,0.36-0.15      C205.09,172.1,205.27,171.92,205.4,171.69L205.4,171.69z"/>
			</g>
		</g>
		<g>
			<g>
				<path class="st2" d="M204.69,167.53c-0.07,0.42-0.19,0.83-0.36,1.22c0.05-0.12,0.1-0.24,0.15-0.36      c-0.18,0.41-0.41,0.8-0.68,1.16c0.08-0.1,0.16-0.2,0.23-0.3c-0.13,0.17-0.27,0.33-0.43,0.48c-0.27,0.27-0.44,0.68-0.44,1.06      c0,0.37,0.16,0.81,0.44,1.06c0.29,0.26,0.66,0.46,1.06,0.44c0.4-0.02,0.77-0.15,1.06-0.44c0.47-0.47,0.88-1.02,1.18-1.61      c0.31-0.6,0.55-1.25,0.67-1.91c0.06-0.2,0.07-0.4,0.03-0.6c-0.01-0.2-0.07-0.39-0.18-0.56c-0.18-0.31-0.54-0.61-0.9-0.69      c-0.38-0.09-0.81-0.07-1.16,0.15C205.07,166.83,204.76,167.15,204.69,167.53L204.69,167.53z"/>
			</g>
		</g>
		<g>
			<g>
				<path class="st2" d="M205.64,169.36c0.01-0.01,0.03-0.01,0.04-0.02c-0.12,0.05-0.24,0.1-0.36,0.15c0.01,0,0.03-0.01,0.04-0.01      c-0.13,0.02-0.27,0.04-0.4,0.05c0.01,0,0.03,0,0.04,0c-0.13-0.02-0.27-0.04-0.4-0.05c0.03,0,0.05,0.01,0.08,0.02      c-0.12-0.05-0.24-0.1-0.36-0.15c0.01,0.01,0.02,0.01,0.04,0.02c-0.1-0.08-0.2-0.16-0.3-0.23c0.04,0.03,0.07,0.06,0.1,0.1      c-0.08-0.1-0.16-0.2-0.23-0.3c0.03,0.05,0.06,0.09,0.08,0.14c-0.05-0.12-0.1-0.24-0.15-0.36c0.04,0.09,0.06,0.18,0.08,0.27      c-0.02-0.13-0.04-0.27-0.05-0.4c0.07,0.54,0.01,1.13-0.06,1.67c0.02-0.13,0.04-0.27,0.05-0.4c-0.1,0.73-0.29,1.43-0.56,2.11      c-0.14,0.34-0.02,0.86,0.15,1.16c0.18,0.31,0.54,0.61,0.9,0.69c0.38,0.09,0.82,0.07,1.16-0.15c0.35-0.22,0.54-0.51,0.69-0.9      c0.41-1.02,0.62-2.12,0.68-3.21c0.03-0.53,0.05-1.11-0.13-1.62c-0.17-0.48-0.44-0.88-0.88-1.16c-0.54-0.35-1.2-0.27-1.75-0.01      c-0.32,0.16-0.6,0.56-0.69,0.9c-0.1,0.36-0.05,0.84,0.15,1.16c0.21,0.32,0.51,0.6,0.9,0.69      C204.89,169.61,205.26,169.55,205.64,169.36L205.64,169.36z"/>
			</g>
		</g>
		<g>
			<g>
				<path class="st2" d="M206.15,169.75c0.44-0.15,0.87-0.34,1.27-0.59c0.25-0.16,0.48-0.34,0.7-0.52c0.14-0.11,0.27-0.23,0.4-0.36      c0.15-0.14,0.25-0.3,0.31-0.48c0.09-0.18,0.14-0.37,0.13-0.58c0.01-0.21-0.04-0.4-0.13-0.58c-0.06-0.19-0.16-0.35-0.31-0.48      c-0.29-0.26-0.66-0.46-1.06-0.44c-0.4,0.02-0.78,0.15-1.06,0.44c-0.14,0.14-0.3,0.28-0.46,0.4c0.1-0.08,0.2-0.16,0.3-0.23      c-0.3,0.23-0.63,0.43-0.99,0.58c0.12-0.05,0.24-0.1,0.36-0.15c-0.09,0.04-0.18,0.07-0.26,0.1c-0.2,0.05-0.37,0.14-0.51,0.27      c-0.16,0.11-0.29,0.25-0.39,0.42c-0.11,0.17-0.17,0.36-0.18,0.56c-0.04,0.2-0.04,0.4,0.03,0.6c0.12,0.36,0.34,0.71,0.69,0.9      C205.34,169.78,205.77,169.88,206.15,169.75L206.15,169.75z"/>
			</g>
		</g>
		<g>
			<g>
				<path class="st2" d="M203.85,171.33c1.24-0.22,2.47-0.44,3.71-0.65c0.35-0.06,0.72-0.39,0.9-0.69c0.19-0.32,0.27-0.8,0.15-1.16      c-0.12-0.36-0.34-0.71-0.69-0.9c-0.38-0.2-0.74-0.22-1.16-0.15c-1.24,0.22-2.47,0.44-3.71,0.65c-0.35,0.06-0.72,0.39-0.9,0.69      c-0.19,0.32-0.27,0.8-0.15,1.16c0.12,0.36,0.34,0.71,0.69,0.9C203.07,171.37,203.43,171.4,203.85,171.33L203.85,171.33z"/>
			</g>
		</g>
		<g>
			<g>
				<path class="st2" d="M205.14,171.25c0.56-0.23,1.12-0.45,1.68-0.68c0.2-0.05,0.37-0.14,0.51-0.27c0.16-0.11,0.29-0.25,0.39-0.42      c0.11-0.17,0.17-0.36,0.18-0.56c0.04-0.2,0.04-0.4-0.03-0.6c-0.12-0.36-0.34-0.71-0.69-0.9c-0.12-0.05-0.24-0.1-0.36-0.15      c-0.27-0.07-0.53-0.07-0.8,0c-0.56,0.23-1.12,0.45-1.68,0.68c-0.2,0.05-0.37,0.14-0.51,0.27c-0.16,0.11-0.29,0.25-0.39,0.42      c-0.11,0.17-0.17,0.36-0.18,0.56c-0.04,0.2-0.04,0.4,0.03,0.6c0.12,0.36,0.34,0.71,0.69,0.9c0.12,0.05,0.24,0.1,0.36,0.15      C204.61,171.33,204.87,171.33,205.14,171.25L205.14,171.25z"/>
			</g>
		</g>
		<g>
			<g>
				<path class="st2" d="M206.46,170.16c0.13-0.06,0.25-0.12,0.38-0.17c0.17-0.09,0.32-0.22,0.42-0.39      c0.13-0.14,0.22-0.31,0.27-0.51c0.06-0.2,0.07-0.4,0.03-0.6c-0.01-0.2-0.07-0.39-0.18-0.56c-0.08-0.1-0.16-0.2-0.23-0.3      c-0.19-0.19-0.41-0.31-0.66-0.39c-0.13-0.02-0.27-0.04-0.4-0.05c-0.27,0-0.52,0.07-0.76,0.2c-0.13,0.06-0.25,0.12-0.38,0.17      c-0.17,0.09-0.32,0.22-0.42,0.39c-0.13,0.14-0.22,0.31-0.27,0.51c-0.06,0.2-0.07,0.4-0.03,0.6c0.01,0.2,0.07,0.39,0.18,0.56      c0.08,0.1,0.16,0.2,0.23,0.3c0.19,0.19,0.41,0.31,0.66,0.39c0.13,0.02,0.27,0.04,0.4,0.05      C205.98,170.37,206.23,170.3,206.46,170.16L206.46,170.16z"/>
			</g>
		</g>
		<g>
			<g>
				<path class="st2" d="M205.72,170.19c1.93,0,1.93-3,0-3C203.79,167.19,203.79,170.19,205.72,170.19L205.72,170.19z"/>
			</g>
		</g>
		<g>
			<g>
				<path class="st2" d="M204.95,167.74c0.01,0.08,0.02,0.16,0.03,0.23c-0.02-0.13-0.04-0.27-0.05-0.4      c0.08,0.63,0.08,1.26-0.01,1.89c0.02-0.13,0.04-0.27,0.05-0.4c-0.05,0.35-0.12,0.7-0.22,1.04c-0.11,0.37-0.04,0.83,0.15,1.16      c0.18,0.31,0.54,0.61,0.9,0.69c0.38,0.09,0.82,0.07,1.16-0.15c0.33-0.21,0.58-0.51,0.69-0.9c0.19-0.64,0.29-1.31,0.33-1.97      c0.04-0.67-0.03-1.33-0.13-1.99c-0.06-0.35-0.4-0.73-0.69-0.9c-0.32-0.19-0.8-0.27-1.16-0.15c-0.36,0.12-0.71,0.34-0.9,0.69      c-0.05,0.12-0.1,0.24-0.15,0.36C204.88,167.21,204.88,167.48,204.95,167.74L204.95,167.74z"/>
			</g>
		</g>
		<g>
			<g>
				<path class="st2" d="M205.72,170.86c0.01-0.01,0.01-0.02,0.02-0.03c-0.08,0.1-0.16,0.2-0.23,0.3c0.04-0.06,0.09-0.1,0.15-0.15      c-0.1,0.08-0.2,0.16-0.3,0.23c0.06-0.05,0.13-0.09,0.21-0.12c-0.12,0.05-0.24,0.1-0.36,0.15c0.11-0.04,0.22-0.07,0.34-0.09      c-0.13,0.02-0.27,0.04-0.4,0.05c0.35-0.04,0.69,0.02,1.03,0.02c0.68,0,1.4-0.2,1.89-0.7c0.42-0.43,0.69-1.06,0.66-1.67      c-0.01-0.36-0.09-0.71-0.28-1.03c-0.09-0.15-0.2-0.29-0.33-0.41c-0.26-0.25-0.44-0.31-0.77-0.45c-0.2-0.06-0.4-0.07-0.6-0.03      c-0.2,0.01-0.39,0.07-0.56,0.18c-0.31,0.18-0.61,0.54-0.69,0.9c-0.09,0.38-0.07,0.81,0.15,1.16c0.08,0.1,0.16,0.2,0.23,0.3      c0.19,0.19,0.41,0.31,0.66,0.39c0.01,0,0.02,0.01,0.02,0.01c-0.12-0.05-0.24-0.1-0.36-0.15c0.03,0.01,0.06,0.03,0.08,0.05      c-0.1-0.08-0.2-0.16-0.3-0.23c0.02,0.02,0.05,0.04,0.07,0.07c-0.08-0.1-0.16-0.2-0.23-0.3c0.02,0.03,0.03,0.05,0.05,0.08      c-0.05-0.12-0.1-0.24-0.15-0.36c0.02,0.05,0.03,0.1,0.04,0.15c-0.02-0.13-0.04-0.27-0.05-0.4c0.01,0.07,0.01,0.15,0,0.22      c0.02-0.13,0.04-0.27,0.05-0.4c-0.01,0.08-0.03,0.15-0.06,0.22c0.05-0.12,0.1-0.24,0.15-0.36c-0.03,0.07-0.07,0.13-0.11,0.2      c0.08-0.1,0.16-0.2,0.23-0.3c-0.04,0.04-0.07,0.08-0.12,0.11c0.1-0.08,0.2-0.16,0.3-0.23c-0.06,0.05-0.13,0.08-0.2,0.11      c0.12-0.05,0.24-0.1,0.36-0.15c-0.09,0.03-0.18,0.06-0.27,0.07c0.13-0.02,0.27-0.04,0.4-0.05c-0.4,0.05-0.81-0.05-1.21-0.01      c-0.47,0.04-0.78,0.11-1.2,0.3c-0.39,0.18-0.66,0.49-0.91,0.83c-0.11,0.17-0.17,0.36-0.18,0.56c-0.04,0.2-0.04,0.4,0.03,0.6      c0.1,0.35,0.36,0.73,0.69,0.9c0.35,0.18,0.77,0.28,1.16,0.15c0.12-0.05,0.24-0.1,0.36-0.15      C205.41,171.26,205.59,171.08,205.72,170.86L205.72,170.86z"/>
			</g>
		</g>
		<g>
			<g>
				<path class="st2" d="M204.68,168.53c-0.07,0.25-0.16,0.49-0.26,0.73c0.05-0.12,0.1-0.24,0.15-0.36      c-0.2,0.47-0.46,0.92-0.77,1.33c0.08-0.1,0.16-0.2,0.23-0.3c-0.26,0.34-0.56,0.64-0.88,0.92c-0.28,0.23-0.44,0.71-0.44,1.06      c0,0.37,0.16,0.81,0.44,1.06c0.29,0.26,0.66,0.46,1.06,0.44c0.13-0.02,0.27-0.04,0.4-0.05c0.25-0.07,0.47-0.2,0.66-0.39      c0.55-0.46,1.02-1.03,1.41-1.63c0.39-0.61,0.69-1.31,0.89-2.01c0.11-0.37,0.04-0.82-0.15-1.16c-0.18-0.31-0.54-0.61-0.9-0.69      c-0.38-0.09-0.82-0.07-1.16,0.15C205.04,167.84,204.79,168.14,204.68,168.53L204.68,168.53z"/>
			</g>
		</g>
		<g>
			<g>
				<path class="st2" d="M205.32,168.19c-0.07,0.13-0.14,0.25-0.21,0.38c-0.11,0.17-0.17,0.36-0.18,0.56      c-0.04,0.2-0.04,0.4,0.03,0.6c0.05,0.2,0.14,0.37,0.27,0.51c0.11,0.16,0.25,0.29,0.42,0.39c0.12,0.05,0.24,0.1,0.36,0.15      c0.27,0.07,0.53,0.07,0.8,0c0.12-0.05,0.24-0.1,0.36-0.15c0.23-0.13,0.4-0.31,0.54-0.54c0.07-0.13,0.14-0.25,0.21-0.38      c0.11-0.17,0.17-0.36,0.18-0.56c0.04-0.2,0.04-0.4-0.03-0.6c-0.05-0.2-0.14-0.37-0.27-0.51c-0.11-0.16-0.25-0.29-0.42-0.39      c-0.12-0.05-0.24-0.1-0.36-0.15c-0.27-0.07-0.53-0.07-0.8,0c-0.12,0.05-0.24,0.1-0.36,0.15      C205.64,167.78,205.46,167.96,205.32,168.19L205.32,168.19z"/>
			</g>
		</g>
		<g>
			<g>
				<path class="st2" d="M203.04,171.74c0.24,0.09,0.51,0.12,0.77,0.14c0.14,0.01,0.27,0.01,0.41,0c0.25-0.03,0.51-0.06,0.76-0.14      c0.24-0.08,0.48-0.18,0.7-0.31c0.34-0.19,0.66-0.45,0.9-0.75c0.34-0.42,0.61-0.86,0.74-1.39c0.1-0.38,0.05-0.81-0.15-1.16      c-0.18-0.31-0.54-0.61-0.9-0.69c-0.38-0.09-0.81-0.07-1.16,0.15c-0.32,0.21-0.59,0.51-0.69,0.9c-0.02,0.1-0.05,0.19-0.09,0.28      c0.05-0.12,0.1-0.24,0.15-0.36c-0.07,0.16-0.16,0.31-0.26,0.45c0.08-0.1,0.16-0.2,0.23-0.3c-0.11,0.13-0.23,0.25-0.36,0.36      c0.1-0.08,0.2-0.16,0.3-0.23c-0.14,0.11-0.3,0.2-0.46,0.27c0.12-0.05,0.24-0.1,0.36-0.15c-0.15,0.06-0.31,0.11-0.48,0.13      c0.13-0.02,0.27-0.04,0.4-0.05c-0.14,0.02-0.28,0.02-0.43,0c0.13,0.02,0.27,0.04,0.4,0.05c-0.12-0.02-0.24-0.05-0.36-0.09      c-0.2-0.06-0.4-0.07-0.6-0.03c-0.2,0.01-0.39,0.07-0.56,0.18c-0.31,0.18-0.61,0.54-0.69,0.9c-0.09,0.38-0.07,0.81,0.15,1.16      c0.08,0.1,0.16,0.2,0.23,0.3C202.57,171.54,202.79,171.67,203.04,171.74L203.04,171.74z"/>
			</g>
		</g>
		<path class="st8" d="M323.06,179.11c0.23-0.11,0.45-0.22,0.67-0.35c0.4-0.22,0.82-0.35,1.26-0.41l8.34-129.78l-120.07-7.61    c-0.27,0.27-0.56,0.51-0.88,0.7c-0.31,0.18-0.62,0.37-0.94,0.55c-0.15,0.09-0.31,0.15-0.47,0.22c-0.22,0.21-0.46,0.4-0.75,0.54    c-0.32,0.22-0.66,0.42-0.99,0.62c-0.03,0.03-0.05,0.06-0.08,0.09c-0.09,0.09-0.19,0.15-0.28,0.23c-0.37,0.42-0.82,0.77-1.36,0.98    c-0.18,0.32-0.39,0.63-0.68,0.88c-0.39,0.39-0.83,0.66-1.33,0.8c-0.39,0.19-0.79,0.28-1.22,0.28c-0.22,0.09-0.45,0.18-0.65,0.3    c-0.24,0.14-0.49,0.25-0.75,0.32c-0.22,0.13-0.45,0.23-0.7,0.31c-0.15,0.06-0.3,0.13-0.45,0.19c-0.26,0.18-0.53,0.32-0.83,0.4    c-0.12,0.06-0.24,0.1-0.36,0.14c-0.02,0.01-0.04,0.03-0.05,0.04c-0.01,0.01-0.03,0.02-0.04,0.03c-0.02,0.01-0.03,0.01-0.05,0.02    c-0.1,0.04-0.23,0.09-0.36,0.15c-0.05,0.03-0.11,0.05-0.16,0.08c-0.04,0.03-0.07,0.07-0.11,0.1c-0.04,0.03-0.07,0.06-0.11,0.09    c-0.17,0.27-0.36,0.51-0.6,0.73c-0.12,0.11-0.23,0.22-0.35,0.33c-0.16,0.24-0.34,0.46-0.56,0.66c-0.34,0.34-0.73,0.58-1.15,0.73    c-0.19,0.12-0.38,0.22-0.58,0.3c-0.09,0.07-0.18,0.13-0.27,0.2c-0.01,0.01-0.03,0.02-0.04,0.03c-0.02,0.01-0.03,0.01-0.05,0.02    c-0.1,0.04-0.23,0.09-0.36,0.15c-0.31,0.17-0.64,0.3-0.99,0.38c-0.1,0.01-0.2,0.02-0.3,0.02c-0.05,0.02-0.11,0.05-0.16,0.06    c-0.1,0.08-0.2,0.16-0.3,0.24c-0.12,0.09-0.26,0.16-0.39,0.24c-0.11,0.08-0.24,0.14-0.36,0.21c-0.19,0.37-0.42,0.71-0.74,0.99    c-0.04,0.04-0.09,0.08-0.13,0.12c-0.51,0.48-1.09,0.8-1.74,0.97c-0.59,0.77-1.44,1.32-2.55,1.41c-0.19,0.42-0.45,0.8-0.79,1.1    c-0.39,0.39-0.83,0.66-1.33,0.8c-0.16,0.08-0.32,0.13-0.48,0.18c-0.12,0.04-0.25,0.08-0.38,0.12c-0.25,0.02-0.51,0.04-0.76,0.06    c-0.35,0.43-0.79,0.78-1.32,1.01c-0.09,0.1-0.16,0.21-0.27,0.3c-0.28,0.28-0.6,0.48-0.94,0.63c-0.31,0.19-0.64,0.33-0.99,0.43    c-0.08,0.08-0.14,0.17-0.22,0.25c-0.34,0.34-0.73,0.58-1.15,0.73c-0.36,0.22-0.75,0.39-1.16,0.49c-0.19,0.02-0.38,0.03-0.57,0.05    c-0.3,0.28-0.64,0.52-1.04,0.68c-0.62,1.35-1.85,2.35-3.65,2.24c-0.27-0.02-0.52-0.06-0.75-0.12c-0.02,0.01-0.04,0.02-0.06,0.02    c-0.3,0.41-0.67,0.74-1.12,0.97c-0.27,0.12-0.56,0.22-0.84,0.32c-0.56,0.69-1.34,1.18-2.33,1.3c-0.49,0.66-1.17,1.16-2.04,1.36    c0,0,0,0-0.01,0c-0.07,0.27-0.18,0.53-0.32,0.78c-0.19,0.52-0.5,0.96-0.91,1.32c-0.39,0.39-0.83,0.66-1.33,0.8    c-0.21,0.1-0.43,0.16-0.65,0.21c-0.47,0.45-1.05,0.79-1.76,0.92c-0.22,0.22-0.47,0.41-0.75,0.55c-0.09,0.04-0.16,0.09-0.25,0.14    c-0.45,0.34-0.94,0.58-1.49,0.71c-0.01,0-0.03,0-0.04,0c-0.3,0.28-0.64,0.51-1.04,0.67l-8.35,129.83l122.1,7.73    c0.45-0.98,1.23-1.78,2.32-2.09c0.42-0.53,0.97-0.94,1.65-1.16c0.14-0.2,0.3-0.39,0.49-0.56c0.25-0.26,0.54-0.44,0.84-0.59    c0.08-0.06,0.15-0.1,0.16-0.12c0.01,0,0.01-0.01,0.02-0.01c0.03-0.02,0.46-0.18,0.75-0.29c0.67-1.1,1.82-1.85,3.4-1.75    c0.18,0.01,0.35,0.04,0.52,0.07c0.29-0.52,0.68-0.96,1.15-1.29c0.17-0.29,0.37-0.56,0.63-0.79c0.39-0.39,0.83-0.66,1.33-0.8    c0.48-0.23,0.98-0.32,1.51-0.27c0.53-0.62,1.25-1.07,2.15-1.21c0.06-0.07,0.14-0.12,0.21-0.18c0.48-1.69,1.8-3.07,3.91-2.93    c0.22,0.01,0.42,0.05,0.62,0.09c0.03-0.03,0.06-0.07,0.09-0.1c0.37-0.33,0.77-0.62,1.19-0.86c0.01-0.01,0.03-0.02,0.04-0.03    c0.02-0.01,0.03-0.02,0.05-0.03c0.4-0.52,0.93-0.92,1.58-1.15c0.47-0.72,1.15-1.28,2.02-1.53c0.16-0.22,0.33-0.43,0.52-0.61    c0.02-0.02,0.83-0.61,0.85-0.62c0,0,0.01-0.01,0.01-0.01c0.32-0.16,0.66-0.28,0.99-0.38c0.01,0,0.02,0,0.02-0.01    c0.17-0.03,1.03-0.08,0.54-0.04c0.18-0.02,0.36-0.03,0.53-0.04c0,0,0,0,0,0c0,0,0,0,0.01,0c0.04,0,0.09,0.01,0.13,0.02    c0.14-0.2,0.3-0.39,0.5-0.56c0.28-0.29,0.61-0.49,0.95-0.64c0.48-1.69,1.81-3.06,3.91-2.93c0.02,0,0.05,0.01,0.07,0.01    c0.41-0.33,0.9-0.56,1.46-0.68c0.36-0.33,0.79-0.58,1.29-0.73c0.52-1.07,1.44-1.89,2.73-2.08c0.36-0.33,0.76-0.58,1.21-0.71    c0.06-0.03,0.12-0.05,0.17-0.07c0.54-0.7,1.3-1.21,2.26-1.36c0.05-0.05,0.1-0.1,0.15-0.14c0.53-0.5,1.13-0.83,1.82-0.99    c0.09-0.01,0.18-0.01,0.27-0.02c0.43-0.75,1.08-1.33,1.92-1.63C320.52,180.27,321.55,179.27,323.06,179.11z"/>
		<path class="st9" d="M325.08,176.74c-18.81,12.29-37.93,23.9-56.62,36.45"/>
		<path class="st9" d="M216.07,41.14c-19.83,12.29-40.01,23.93-59.7,36.47"/>
		<path class="st10" d="M323.21,176.62l-115-7.28c-1.03-0.07-1.81-1.08-1.73-2.26l7.96-123.89c0.08-1.19,0.98-2.09,2.01-2.03    l115,7.28c1.03,0.07,1.81,1.08,1.73,2.26l-7.96,123.89C325.15,175.78,324.25,176.69,323.21,176.62z"/>
		<path class="st9" d="M333.26,49.62c-20.13,13.04-40.59,25.34-60.6,38.66"/>
		
			<rect x="148.2" y="85.81" transform="matrix(0.0632 -0.998 0.998 0.0632 53.9871 348.1093)" class="st10" width="128.44" height="118.98"/>
		<line class="st9" x1="214.52" y1="42.1" x2="207.32" y2="169.28"/>
		<line class="st9" x1="205.93" y1="169.2" x2="313.22" y2="175.99"/>
		<line class="st9" x1="148.93" y1="205.63" x2="205.93" y2="169.2"/>
	</g>
	<g>
		<line class="st11" x1="138.71" y1="317.24" x2="163.08" y2="299.24"/>
		
			<ellipse transform="matrix(0.58 -0.8146 0.8146 0.58 -166.741 242.3597)" class="st12" cx="151.66" cy="282.88" rx="49.96" ry="46.11"/>
		
			<ellipse transform="matrix(0.9032 -0.4292 0.4292 0.9032 -100.4937 104.6987)" class="st13" cx="181.87" cy="275.15" rx="6.28" ry="4.66"/>
		
			<ellipse transform="matrix(0.9032 -0.4292 0.4292 0.9032 -115.5997 81.0149)" class="st13" cx="121.81" cy="296.79" rx="6.28" ry="4.66"/>
		<path class="st14" d="M144.44,285.49c1.21,0.37,4.07,1.06,7.44-0.07c3.92-1.32,6.11-4.27,6.84-5.36"/>
		<ellipse transform="matrix(0.9988 -0.048 0.048 0.9988 -12.7364 8.6209)" cx="173.07" cy="269.41" rx="7.48" ry="8.47"/>
		
			<ellipse transform="matrix(0.9883 -0.1524 0.1524 0.9883 -39.2602 29.5025)" class="st15" cx="172.85" cy="270.89" rx="1.17" ry="1.34"/>
		
			<ellipse transform="matrix(0.9883 -0.1524 0.1524 0.9883 -39.0094 28.9032)" class="st15" cx="169.07" cy="268.96" rx="2.41" ry="2.75"/>
		<ellipse transform="matrix(0.9988 -0.048 0.048 0.9988 -13.62 6.4437)" cx="127.31" cy="286.72" rx="7.48" ry="8.47"/>
		
			<ellipse transform="matrix(0.9883 -0.1524 0.1524 0.9883 -42.4311 22.7318)" class="st15" cx="127.09" cy="288.19" rx="1.17" ry="1.34"/>
		
			<ellipse transform="matrix(0.9883 -0.1524 0.1524 0.9883 -42.1803 22.1326)" class="st15" cx="123.31" cy="286.26" rx="2.41" ry="2.75"/>
	</g>
	<g>
		<line class="st11" x1="301.19" y1="284.21" x2="329.38" y2="294.42"/>
		
			<ellipse transform="matrix(0.7815 -0.6239 0.6239 0.7815 -97.8004 269.4205)" class="st16" cx="335.79" cy="274.35" rx="47.08" ry="51.51"/>
		
			<ellipse transform="matrix(0.6306 -0.7761 0.7761 0.6306 -97.373 387.6691)" class="st13" cx="358.55" cy="296.12" rx="4.57" ry="6.44"/>
		
			<ellipse transform="matrix(0.6306 -0.7761 0.7761 0.6306 -86.7041 332.2647)" class="st13" cx="305.69" cy="257.21" rx="4.57" ry="6.44"/>
		<path class="st14" d="M327.9,269.97c0.47,1.27,1.74,4.16,4.65,6.4c3.38,2.6,6.89,2.71,8.14,2.68"/>
		<ellipse transform="matrix(0.1851 -0.9827 0.9827 0.1851 11.0609 583.4139)" cx="357.3" cy="285.04" rx="8.33" ry="7.65"/>
		
			<ellipse transform="matrix(0.1849 -0.9828 0.9828 0.1849 9.445 582.8655)" class="st15" cx="356.09" cy="285.74" rx="1.33" ry="1.18"/>
		
			<ellipse transform="matrix(0.1849 -0.9828 0.9828 0.1849 13.0575 578.3354)" class="st15" cx="355.16" cy="281.3" rx="2.73" ry="2.44"/>
		<ellipse transform="matrix(0.1851 -0.9827 0.9827 0.1851 6.4076 519.4927)" cx="316.44" cy="255.88" rx="8.33" ry="7.65"/>
		
			<ellipse transform="matrix(0.1849 -0.9828 0.9828 0.1849 4.7843 518.9365)" class="st15" cx="315.22" cy="256.58" rx="1.33" ry="1.18"/>
		
			<ellipse transform="matrix(0.1849 -0.9828 0.9828 0.1849 8.3968 514.4064)" class="st15" cx="314.3" cy="252.14" rx="2.73" ry="2.44"/>
	</g>
	<line class="st6" x1="364.87" y1="208.85" x2="384.87" y2="349.08"/>
	<line class="st4" x1="213.41" y1="234.42" x2="191.05" y2="368.02"/>
	<g>
		<line class="st11" x1="208.09" y1="166.77" x2="235.61" y2="160.48"/>
		
			<ellipse transform="matrix(0.8144 -0.5802 0.5802 0.8144 -38.5156 160.6666)" class="st17" cx="231.95" cy="140.55" rx="47.12" ry="45.88"/>
		
			<ellipse transform="matrix(0.0338 -0.9994 0.9994 0.0338 104.8979 401.9225)" class="st13" cx="260.33" cy="146.71" rx="4.46" ry="5.91"/>
		
			<ellipse transform="matrix(0.0338 -0.9994 0.9994 0.0338 51.2474 337.6281)" class="st13" cx="200.25" cy="142.31" rx="4.46" ry="5.91"/>
		<path class="st14" d="M223.95,141.21c0.93,0.8,3.21,2.51,6.55,2.83c3.89,0.37,6.82-1.36,7.83-2.03"/>
		<ellipse transform="matrix(0.1413 -0.99 0.99 0.1413 81.7128 370.7465)" cx="254.56" cy="138.27" rx="8.01" ry="7.12"/>
		
			<ellipse transform="matrix(0.056 -0.9984 0.9984 0.056 100.3953 385.1382)" class="st15" cx="253.86" cy="139.48" rx="1.27" ry="1.11"/>
		
			<ellipse transform="matrix(0.056 -0.9984 0.9984 0.056 101.0412 379.5007)" class="st15" cx="251.21" cy="136.32" rx="2.61" ry="2.28"/>
		<ellipse transform="matrix(0.1413 -0.99 0.99 0.1413 44.7867 322.8897)" cx="208.51" cy="135.63" rx="8.01" ry="7.12"/>
		
			<ellipse transform="matrix(0.056 -0.9984 0.9984 0.056 59.563 336.6663)" class="st15" cx="207.81" cy="136.84" rx="1.27" ry="1.11"/>
		
			<ellipse transform="matrix(0.056 -0.9984 0.9984 0.056 60.2089 331.0288)" class="st15" cx="205.16" cy="133.68" rx="2.61" ry="2.28"/>
	</g>
	<line class="st9" x1="275.91" y1="84.97" x2="267.67" y2="213.15"/>
</g>
</svg>